<mxfile host="app.diagrams.net" modified="2023-12-04T04:17:07.945Z" agent="Mozilla/5.0 (X11; Linux x86_64) AppleWebKit/537.36 (KHTML, like Gecko) Chrome/119.0.0.0 Safari/537.36" version="22.1.5" etag="A0VU7ZB7BLTQZv7tnqzz" type="github">
  <diagram name="Page-1" id="6LqdPmm70qAg5XFgMG6f">
    <mxGraphModel>
      <root>
        <mxCell id="0" />
        <mxCell id="1" parent="0" />
      </root>
    </mxGraphModel>
  </diagram>
</mxfile>
